<?xml version="1.0" encoding="UTF-8" standalone="no"?>
<!-- Created with Inkscape (http://www.inkscape.org/) -->

<svg
   width="899.58337mm"
   height="899.58337mm"
   viewBox="0 0 899.58336 899.58337"
   version="1.1"
   id="svg1"
   inkscape:version="1.3 (0e150ed6c4, 2023-07-21)"
   sodipodi:docname="logo_v2_.svg"
   inkscape:export-filename="logo_v2_.png"
   inkscape:export-xdpi="96"
   inkscape:export-ydpi="96"
   xmlns:inkscape="http://www.inkscape.org/namespaces/inkscape"
   xmlns:sodipodi="http://sodipodi.sourceforge.net/DTD/sodipodi-0.dtd"
   xmlns="http://www.w3.org/2000/svg"
   xmlns:svg="http://www.w3.org/2000/svg">
  <sodipodi:namedview
     id="namedview1"
     pagecolor="#ffffff"
     bordercolor="#000000"
     borderopacity="0.25"
     inkscape:showpageshadow="2"
     inkscape:pageopacity="0.0"
     inkscape:pagecheckerboard="0"
     inkscape:deskcolor="#d1d1d1"
     inkscape:document-units="mm"
     inkscape:zoom="0.13559204"
     inkscape:cx="1312.7614"
     inkscape:cy="2872.5875"
     inkscape:window-width="1920"
     inkscape:window-height="1057"
     inkscape:window-x="-8"
     inkscape:window-y="-8"
     inkscape:window-maximized="1"
     inkscape:current-layer="layer1" />
  <defs
     id="defs1" />
  <g
     inkscape:label="Layer 1"
     inkscape:groupmode="layer"
     id="layer1"
     transform="translate(-833.49788,13.327075)">
    <circle
       style="fill:#000000;fill-opacity:1;stroke:#1a1a1a;stroke-width:0.65531;stroke-linecap:round;stroke-linejoin:round;stroke-dasharray:none;stroke-opacity:1"
       id="path8"
       cx="1283.2896"
       cy="436.4646"
       r="449.46402" />
    <path
       style="fill:#ffffff;fill-opacity:1;stroke:#ffffff;stroke-width:0.79375;stroke-linecap:round;stroke-linejoin:round;stroke-dasharray:none;stroke-opacity:1"
       d="m 1290.5076,125.13706 1.3798,151.43206 c 0,19.40488 5.159,29.19055 16.385,29.49303 l -7.5888,8.27875 -3.4495,7.58885 -1.3798,33.11498 c -0.1982,3.97581 -0.6611,7.90949 -2.6176,12.13524 l -3.1709,82.68715 c -4.3202,19.68263 0.1416,35.95874 -2.5019,49.13838 l -4.8155,15.98689 c -0.1386,21.36904 -7.5263,22.22861 -8.8817,54.42021 l -6.8368,196.6878 -4.89,-18.24982 2.2167,-432.65197 -186.8472,0.6899 c -5.313,1.10477 -9.3054,4.38083 -12.9786,11.0633 -11.3321,0 -19.4967,-8.68801 -19.4967,-16.73774 0,-6.69656 9.8269,-15.49531 20.1465,-15.49531 2.3251,4.8784 5.8627,9.07786 12.2376,11.68834 h 170.8333 c 14.986,0 27.4233,-9.63459 27.4233,-29.83798 l 4.1394,-151.30143 c 0,-6.06899 0.068,-6.08655 -6.7979,-10.05043 l 12.3379,-8.38824 12.516,8.00889 c -7.4481,4.35706 -7.3626,4.34662 -7.3626,10.29915 z"
       id="path6"
       sodipodi:nodetypes="cccccccccccccccccccccccccc" />
  </g>
</svg>
